<svg id="Ebene_1" data-name="Ebene 1" xmlns="http://www.w3.org/2000/svg" viewBox="0 0 198 34.32"><defs><style>.cls-1{fill:#2e2d2c;}.cls-2{fill:#3e96db;}</style></defs><title>logoAcrolinx</title><path class="cls-1" d="M14.73,29.83A10.73,10.73,0,0,1,4,20.42,10.52,10.52,0,0,1,14.36,8.84a10.53,10.53,0,0,1,10.4,10.5v10.5h-10Zm-.24-25H13.22L13,4.91v0A14.61,14.61,0,0,0,.06,18.07H0v2.3l0,.23h0A14.61,14.61,0,0,0,14.26,33.82H28.74V19.34A14.55,14.55,0,0,0,14.49,4.85"/><path class="cls-1" d="M145.92,4.66a15,15,0,0,0-15,15v14.2h4V19.62a10.92,10.92,0,1,1,21.83,0v14.2h4V19.62a15,15,0,0,0-15-15"/><path class="cls-1" d="M55,26.76a10.5,10.5,0,1,1-.16-14.68l.9.9,2.82-2.82-.9-.9A14.5,14.5,0,0,0,38.1,8.41l-.05,0L36.54,9.91l-.12.17h0a14.57,14.57,0,0,0,.91,19.49,14.5,14.5,0,0,0,20.48,0l.9-.9-2.82-2.82Z"/><path class="cls-1" d="M89,29.83A10.54,10.54,0,1,1,99.49,19.29,10.55,10.55,0,0,1,89,29.83M89,4.77a14.53,14.53,0,1,0,14.52,14.53A14.54,14.54,0,0,0,89,4.77"/><rect class="cls-1" x="121.92" y="4.77" width="3.99" height="29.05"/><path class="cls-1" d="M66.73,8.08a9.75,9.75,0,0,0-3.94,7.81V33.82h4V15.89a5.74,5.74,0,0,1,2.32-4.6l3.66-2.71L70.39,5.37Z"/><path class="cls-1" d="M111.85,23.81V0h-4V23.81a9.75,9.75,0,0,0,3.94,7.81l3.66,2.71,2.37-3.21-3.66-2.71a5.75,5.75,0,0,1-2.32-4.6"/><path class="cls-2" d="M182.39,16.6,171.54,5.74a3.34,3.34,0,0,0-2.37-1h-4.63L178.74,19a.44.44,0,0,1,0,.62l-14.2,14.21h4.63a3.33,3.33,0,0,0,2.37-1L182.39,22a3.81,3.81,0,0,0,0-5.38"/><path class="cls-1" d="M186,16.65h0l12-12h-5.95l-8.55,8.55.8.8a7.37,7.37,0,0,1,1.7,2.64"/><path class="cls-1" d="M184.3,24.57l-.7.7L192,33.72h6L186,21.77a7.37,7.37,0,0,1-1.75,2.79"/></svg>